<svg width="297" height="138" viewBox="0 0 297 138" fill="none" xmlns="http://www.w3.org/2000/svg">
<rect x="0.5" y="0.5" width="296" height="137" rx="31.5" fill="#363739"/>
<rect x="0.5" y="0.5" width="296" height="137" rx="31.5" stroke="#494949"/>
<path d="M235 50L276 20.5V112.5H26.5L105.5 90.5L154 65.5L235 50Z" fill="url(#paint0_linear_1_43)"/>
<path d="M26.32 56.04H21.472V53.8H29.552V55.672L26.688 58.136C28.4 58.376 30.016 59.272 30.016 61.448C30.016 63.672 28.192 65.24 25.648 65.24C22.96 65.24 20.864 63.208 20.864 60.632H23.104C23.104 62.072 24.176 63.096 25.664 63.096C26.88 63.096 27.776 62.408 27.776 61.464C27.776 60.44 27.008 59.8 25.776 59.8H24.768L23.856 58.472L26.32 56.04ZM31.7546 62.84V60.936L37.8346 53.8H40.0746V60.6H41.7866V62.84H40.0746V65H37.8346V62.84H31.7546ZM34.7466 60.6H37.8346V56.92L34.7466 60.6ZM47.0436 56.488C47.0436 54.792 48.3396 53.56 50.0996 53.56C51.8596 53.56 53.1396 54.744 53.1396 56.488C53.1396 58.232 51.8596 59.4 50.0996 59.4C48.3556 59.4 47.0436 58.2 47.0436 56.488ZM50.2596 65L56.1956 53.8H58.1156L52.1796 65H50.2596ZM48.6596 56.488C48.6596 57.256 49.2516 57.832 50.0996 57.832C50.9476 57.832 51.5236 57.272 51.5236 56.488C51.5236 55.688 50.9476 55.128 50.0996 55.128C49.2516 55.128 48.6596 55.704 48.6596 56.488ZM55.2836 62.344C55.2836 60.616 56.5476 59.384 58.3076 59.384C60.0676 59.384 61.3316 60.584 61.3316 62.344C61.3316 64.072 60.0676 65.24 58.3076 65.24C56.5636 65.24 55.2836 64.008 55.2836 62.344ZM56.8676 62.344C56.8676 63.112 57.4596 63.672 58.3076 63.672C59.1876 63.672 59.7636 63.112 59.7636 62.344C59.7636 61.528 59.1876 60.952 58.3076 60.952C57.4436 60.952 56.8676 61.528 56.8676 62.344Z" fill="#D8D9D8"/>
<path d="M20.924 22.6H28.124V31H27.164V23.5H21.884V31H20.924V22.6ZM29.9243 25H30.7523L30.8723 26.188C31.3763 25.336 32.2283 24.82 33.2363 24.82C34.8683 24.82 36.0923 26.176 36.0923 27.988C36.0923 29.824 34.8803 31.18 33.2363 31.18C32.2403 31.18 31.3763 30.676 30.8843 29.812V33.4H29.9243V25ZM35.1323 28C35.1323 26.656 34.2203 25.684 32.9843 25.684C31.7243 25.684 30.8843 26.632 30.8843 28C30.8843 29.356 31.7483 30.304 32.9843 30.304C34.2203 30.304 35.1323 29.344 35.1323 28ZM37.1215 28.012C37.1215 26.176 38.4775 24.82 40.2775 24.82C42.1255 24.82 43.4695 26.116 43.4695 28.012C43.4695 29.884 42.1255 31.18 40.2775 31.18C38.4775 31.18 37.1215 29.824 37.1215 28.012ZM38.0815 28C38.0815 29.308 39.0295 30.268 40.2775 30.268C41.6095 30.268 42.5095 29.356 42.5095 28C42.5095 26.644 41.5975 25.72 40.2775 25.72C39.0175 25.72 38.0815 26.692 38.0815 28ZM48.6934 27.76V28.264H45.4294C45.5374 29.452 46.4014 30.304 47.5894 30.304C48.5734 30.304 49.3654 29.74 49.6894 28.888H50.6734C50.3014 30.268 49.1134 31.18 47.5894 31.18C45.7774 31.18 44.4574 29.824 44.4574 28.012C44.4574 26.176 45.7654 24.82 47.5894 24.82C49.1014 24.82 50.2774 25.72 50.6614 27.1H49.6774C49.3414 26.26 48.5614 25.684 47.5774 25.684C46.4014 25.684 45.5254 26.56 45.4294 27.76H48.6934ZM53.0559 28.456V31H52.0959V25H53.0559V27.568H54.1239L56.0799 25H57.1599L54.8439 28L57.4479 31H56.3199L54.1479 28.456H53.0559ZM60.1785 31V25.9H57.7065V25H63.6225V25.9H61.1385V31H60.1785ZM76.0059 24.472C76.0059 23.296 76.8699 22.432 78.0339 22.432C79.1979 22.432 80.0139 23.236 80.0139 24.472C80.0139 25.66 79.1979 26.476 78.0339 26.476C76.8699 26.476 76.0059 25.612 76.0059 24.472ZM68.8059 24.328V31H67.8459V22.6H68.6019L74.0859 29.224V22.6H75.0459V31H74.2899L68.8059 24.328ZM76.7139 24.46C76.7139 25.264 77.3019 25.816 78.0339 25.816C78.8139 25.816 79.3059 25.24 79.3059 24.46C79.3059 23.668 78.8019 23.08 78.0339 23.08C77.2899 23.08 76.7139 23.632 76.7139 24.46ZM76.1499 27.844V27.208H79.8819V27.844H76.1499ZM84.4226 22.42C86.0666 22.42 87.1586 23.368 87.1586 25C87.1586 28.06 82.6826 26.704 82.5506 30.04H87.2666V31H81.5306V30.364C81.5306 26.068 86.1986 27.592 86.1986 24.952C86.1986 23.92 85.4786 23.332 84.4226 23.332C83.2106 23.332 82.4906 24.136 82.4906 25.612H81.5306C81.5306 23.62 82.6706 22.42 84.4226 22.42Z" fill="#D8D9D8"/>
<path d="M248.912 113.18C247.184 113.18 245.804 111.764 245.804 109.928H246.764C246.764 111.284 247.676 112.268 248.912 112.268C250.052 112.268 250.832 111.512 250.832 110.432C250.832 109.316 250.004 108.62 248.696 108.62H246.632L246.188 108.116L246.38 104.6H251.144V105.56H247.22L247.1 107.852H248.792C250.628 107.852 251.792 108.86 251.792 110.432C251.792 112.004 250.58 113.18 248.912 113.18ZM253.086 108.812C253.086 106.28 254.562 104.42 256.59 104.42C258.63 104.42 260.118 106.208 260.118 108.812C260.118 111.38 258.63 113.18 256.59 113.18C254.562 113.18 253.086 111.308 253.086 108.812ZM254.046 108.8C254.046 110.792 255.102 112.268 256.602 112.268C258.078 112.268 259.158 110.828 259.158 108.8C259.158 106.76 258.102 105.332 256.602 105.332C255.102 105.332 254.046 106.784 254.046 108.8ZM261.125 108.812C261.125 106.28 262.601 104.42 264.629 104.42C266.669 104.42 268.157 106.208 268.157 108.812C268.157 111.38 266.669 113.18 264.629 113.18C262.601 113.18 261.125 111.308 261.125 108.812ZM262.085 108.8C262.085 110.792 263.141 112.268 264.641 112.268C266.117 112.268 267.197 110.828 267.197 108.8C267.197 106.76 266.141 105.332 264.641 105.332C263.141 105.332 262.085 106.784 262.085 108.8ZM270.532 109.232V113H269.572V104.6H270.532V108.368H271.9L274.876 104.6H276.028L272.668 108.8L276.352 113H275.164L271.888 109.232H270.532Z" fill="#D8D9D8"/>
<path d="M277 20L234.5 50L153 65.5L105 91L26 111.5" stroke="#D8D9D8" stroke-width="3" stroke-linecap="round"/>
<path d="M235 50V113M154 66V113M71.5 100V113" stroke="#D8D9D8" stroke-opacity="0.14" stroke-linecap="round"/>
<circle cx="275.5" cy="20.5" r="4.5" fill="#7867F4"/>
<circle cx="26.5" cy="111.5" r="4.5" fill="#7867F4"/>
<path d="M26.5 111.5L105 91L116 85" stroke="#7867F4" stroke-width="3"/>
<defs>
<linearGradient id="paint0_linear_1_43" x1="151.25" y1="112.5" x2="151.25" y2="20.5" gradientUnits="userSpaceOnUse">
<stop stop-color="#7867F4" stop-opacity="0"/>
<stop offset="1" stop-color="#7867F4"/>
</linearGradient>
</defs>
</svg>
