<svg width="297" height="138" viewBox="0 0 297 138" fill="none" xmlns="http://www.w3.org/2000/svg">
<rect x="0.5" y="0.5" width="296" height="137" rx="31.5" fill="#363739"/>
<rect x="0.5" y="0.5" width="296" height="137" rx="31.5" stroke="#494949"/>
<path d="M235 50L276 20.5V112.5H26.5L105.5 90.5L154 65.5L235 50Z" fill="url(#paint0_linear_1_19)"/>
<path d="M25.376 53.56C27.984 53.56 29.696 55.048 29.696 57.432C29.696 61.432 23.744 60.104 23.264 62.76H29.84V65H20.864V63.512C20.864 57.768 27.456 60.248 27.456 57.32C27.456 56.312 26.592 55.704 25.36 55.704C23.968 55.704 23.104 56.552 23.104 58.04H20.864C20.864 55.336 22.704 53.56 25.376 53.56ZM36.3199 65.24C33.6159 65.24 31.5359 63.304 31.5359 60.824H33.7759C33.7759 62.152 34.8159 63.096 36.3039 63.096C37.5839 63.096 38.4479 62.376 38.4479 61.352C38.4479 60.264 37.5679 59.624 36.1919 59.624H33.0399L31.9839 58.44L32.2559 53.8H39.8879V56.04H34.2079L34.1119 57.912H36.1599C38.9919 57.912 40.6879 59.176 40.6879 61.32C40.6879 63.576 38.8159 65.24 36.3199 65.24ZM42.2185 67.288L42.5545 63.128H44.8905L44.0905 67.288H42.2185ZM50.9605 65.24C48.2565 65.24 46.1765 63.304 46.1765 60.824H48.4165C48.4165 62.152 49.4565 63.096 50.9445 63.096C52.2245 63.096 53.0885 62.376 53.0885 61.352C53.0885 60.264 52.2085 59.624 50.8325 59.624H47.6805L46.6245 58.44L46.8965 53.8H54.5285V56.04H48.8485L48.7525 57.912H50.8005C53.6325 57.912 55.3285 59.176 55.3285 61.32C55.3285 63.576 53.4565 65.24 50.9605 65.24ZM60.7311 56.488C60.7311 54.792 62.0271 53.56 63.7871 53.56C65.5471 53.56 66.8271 54.744 66.8271 56.488C66.8271 58.232 65.5471 59.4 63.7871 59.4C62.0431 59.4 60.7311 58.2 60.7311 56.488ZM63.9471 65L69.8831 53.8H71.8031L65.8671 65H63.9471ZM62.3471 56.488C62.3471 57.256 62.9391 57.832 63.7871 57.832C64.6351 57.832 65.2111 57.272 65.2111 56.488C65.2111 55.688 64.6351 55.128 63.7871 55.128C62.9391 55.128 62.3471 55.704 62.3471 56.488ZM68.9711 62.344C68.9711 60.616 70.2351 59.384 71.9951 59.384C73.7551 59.384 75.0191 60.584 75.0191 62.344C75.0191 64.072 73.7551 65.24 71.9951 65.24C70.2511 65.24 68.9711 64.008 68.9711 62.344ZM70.5551 62.344C70.5551 63.112 71.1471 63.672 71.9951 63.672C72.8751 63.672 73.4511 63.112 73.4511 62.344C73.4511 61.528 72.8751 60.952 71.9951 60.952C71.1311 60.952 70.5551 61.528 70.5551 62.344Z" fill="#D8D9D8"/>
<path d="M20.924 22.6H28.124V31H27.164V23.5H21.884V31H20.924V22.6ZM29.9243 25H30.7523L30.8723 26.188C31.3763 25.336 32.2283 24.82 33.2363 24.82C34.8683 24.82 36.0923 26.176 36.0923 27.988C36.0923 29.824 34.8803 31.18 33.2363 31.18C32.2403 31.18 31.3763 30.676 30.8843 29.812V33.4H29.9243V25ZM35.1323 28C35.1323 26.656 34.2203 25.684 32.9843 25.684C31.7243 25.684 30.8843 26.632 30.8843 28C30.8843 29.356 31.7483 30.304 32.9843 30.304C34.2203 30.304 35.1323 29.344 35.1323 28ZM37.1215 28.012C37.1215 26.176 38.4775 24.82 40.2775 24.82C42.1255 24.82 43.4695 26.116 43.4695 28.012C43.4695 29.884 42.1255 31.18 40.2775 31.18C38.4775 31.18 37.1215 29.824 37.1215 28.012ZM38.0815 28C38.0815 29.308 39.0295 30.268 40.2775 30.268C41.6095 30.268 42.5095 29.356 42.5095 28C42.5095 26.644 41.5975 25.72 40.2775 25.72C39.0175 25.72 38.0815 26.692 38.0815 28ZM48.6934 27.76V28.264H45.4294C45.5374 29.452 46.4014 30.304 47.5894 30.304C48.5734 30.304 49.3654 29.74 49.6894 28.888H50.6734C50.3014 30.268 49.1134 31.18 47.5894 31.18C45.7774 31.18 44.4574 29.824 44.4574 28.012C44.4574 26.176 45.7654 24.82 47.5894 24.82C49.1014 24.82 50.2774 25.72 50.6614 27.1H49.6774C49.3414 26.26 48.5614 25.684 47.5774 25.684C46.4014 25.684 45.5254 26.56 45.4294 27.76H48.6934ZM53.0559 28.456V31H52.0959V25H53.0559V27.568H54.1239L56.0799 25H57.1599L54.8439 28L57.4479 31H56.3199L54.1479 28.456H53.0559ZM60.1785 31V25.9H57.7065V25H63.6225V25.9H61.1385V31H60.1785ZM76.0059 24.472C76.0059 23.296 76.8699 22.432 78.0339 22.432C79.1979 22.432 80.0139 23.236 80.0139 24.472C80.0139 25.66 79.1979 26.476 78.0339 26.476C76.8699 26.476 76.0059 25.612 76.0059 24.472ZM68.8059 24.328V31H67.8459V22.6H68.6019L74.0859 29.224V22.6H75.0459V31H74.2899L68.8059 24.328ZM76.7139 24.46C76.7139 25.264 77.3019 25.816 78.0339 25.816C78.8139 25.816 79.3059 25.24 79.3059 24.46C79.3059 23.668 78.8019 23.08 78.0339 23.08C77.2899 23.08 76.7139 23.632 76.7139 24.46ZM76.1499 27.844V27.208H79.8819V27.844H76.1499ZM81.1586 24.364V23.428C82.0946 23.404 82.8506 23.116 83.5226 22.6H84.3146V31H83.3546V23.836C82.7426 24.172 81.9986 24.34 81.1586 24.364Z" fill="#D8D9D8"/>
<path d="M251.136 105.56H247.26V104.6H252.468V105.404L250.044 108.02H250.14C251.58 108.02 252.816 108.8 252.816 110.516C252.816 112.04 251.592 113.18 249.948 113.18C248.196 113.18 246.804 111.74 246.804 109.88H247.764C247.764 111.248 248.7 112.268 249.924 112.268C251.028 112.268 251.856 111.512 251.856 110.528C251.856 109.484 251.1 108.776 249.948 108.776H249.336L248.82 108.188L251.136 105.56ZM257.365 113.18C255.637 113.18 254.257 111.764 254.257 109.928H255.217C255.217 111.284 256.129 112.268 257.365 112.268C258.505 112.268 259.285 111.512 259.285 110.432C259.285 109.316 258.457 108.62 257.149 108.62H255.085L254.641 108.116L254.833 104.6H259.597V105.56H255.673L255.553 107.852H257.245C259.081 107.852 260.245 108.86 260.245 110.432C260.245 112.004 259.033 113.18 257.365 113.18ZM261.539 108.812C261.539 106.28 263.015 104.42 265.043 104.42C267.083 104.42 268.571 106.208 268.571 108.812C268.571 111.38 267.083 113.18 265.043 113.18C263.015 113.18 261.539 111.308 261.539 108.812ZM262.499 108.8C262.499 110.792 263.555 112.268 265.055 112.268C266.531 112.268 267.611 110.828 267.611 108.8C267.611 106.76 266.555 105.332 265.055 105.332C263.555 105.332 262.499 106.784 262.499 108.8ZM270.947 109.232V113H269.987V104.6H270.947V108.368H272.315L275.291 104.6H276.443L273.083 108.8L276.767 113H275.579L272.303 109.232H270.947Z" fill="#D8D9D8"/>
<path d="M277 20L234.5 50L153 65.5L105 91L26 111.5" stroke="#D8D9D8" stroke-width="3" stroke-linecap="round"/>
<path d="M235 50V113M154 66V113M71.5 100V113" stroke="#D8D9D8" stroke-opacity="0.14" stroke-linecap="round"/>
<circle cx="275.5" cy="20.5" r="4.5" fill="#7867F4"/>
<circle cx="26.5" cy="111.5" r="4.5" fill="#7867F4"/>
<path d="M26.5 111.5L80 97.5" stroke="#7867F4" stroke-width="3"/>
<defs>
<linearGradient id="paint0_linear_1_19" x1="151.25" y1="112.5" x2="151.25" y2="20.5" gradientUnits="userSpaceOnUse">
<stop stop-color="#7867F4" stop-opacity="0"/>
<stop offset="1" stop-color="#7867F4"/>
</linearGradient>
</defs>
</svg>
