<svg width="647" height="89" viewBox="0 0 647 89" fill="none" xmlns="http://www.w3.org/2000/svg">
<path d="M20.002 16.0303V66.3223H0V0H70.0547V66.3223H50.1006V16.0303H20.002ZM99.0146 17.6094V22.0117C99.4932 21.597 100.115 21.0866 100.881 20.4805C101.646 19.8743 102.588 19.3001 103.704 18.7578C104.853 18.2155 106.208 17.7529 107.771 17.3701C109.335 16.9554 111.153 16.748 113.227 16.748C114.854 16.748 116.528 16.9554 118.251 17.3701C120.006 17.7529 121.696 18.375 123.323 19.2363C124.982 20.0658 126.529 21.1504 127.965 22.4902C129.432 23.7982 130.708 25.3773 131.793 27.2275C132.91 29.0459 133.787 31.1514 134.425 33.5439C135.063 35.9365 135.382 38.6322 135.382 41.6309C135.382 43.7363 135.174 45.8258 134.76 47.8994C134.377 49.973 133.771 51.9668 132.941 53.8809C132.144 55.763 131.107 57.5176 129.831 59.1445C128.587 60.7715 127.088 62.1911 125.333 63.4033C123.61 64.5837 121.648 65.5088 119.447 66.1787C117.246 66.8486 114.774 67.1836 112.03 67.1836C110.18 67.1836 108.569 67.056 107.197 66.8008C105.826 66.5456 104.613 66.2425 103.561 65.8916C102.54 65.5088 101.662 65.11 100.929 64.6953C100.227 64.2487 99.5889 63.8499 99.0146 63.499V88.4775H81.7881V17.6094H99.0146ZM99.0146 51.7275C100.323 52.4932 101.646 53.2109 102.986 53.8809C104.358 54.5189 105.937 54.8379 107.724 54.8379C109.063 54.8379 110.308 54.5508 111.456 53.9766C112.604 53.4023 113.609 52.5729 114.471 51.4883C115.332 50.3717 116.002 49.0319 116.48 47.4688C116.991 45.8737 117.246 44.0553 117.246 42.0137C117.246 39.653 116.943 37.6911 116.337 36.1279C115.763 34.5329 115.013 33.2568 114.088 32.2998C113.163 31.3428 112.142 30.6729 111.025 30.29C109.909 29.8753 108.808 29.668 107.724 29.668C106.511 29.668 105.427 29.8115 104.47 30.0986C103.545 30.3538 102.715 30.6729 101.981 31.0557C101.28 31.4066 100.674 31.7734 100.163 32.1562C99.6846 32.5391 99.3018 32.8581 99.0146 33.1133V51.7275ZM168.218 16.748C172.875 16.748 176.943 17.402 180.42 18.71C183.929 19.986 186.848 21.7565 189.177 24.0215C191.506 26.2546 193.244 28.9183 194.393 32.0127C195.573 35.0752 196.163 38.377 196.163 41.918C196.163 45.459 195.573 48.7767 194.393 51.8711C193.244 54.9336 191.506 57.6133 189.177 59.9102C186.848 62.1751 183.929 63.9616 180.42 65.2695C176.943 66.5456 172.875 67.1836 168.218 67.1836C163.56 67.1836 159.477 66.5456 155.968 65.2695C152.491 63.9616 149.588 62.1751 147.259 59.9102C144.962 57.6133 143.223 54.9336 142.043 51.8711C140.895 48.7767 140.32 45.459 140.32 41.918C140.32 38.377 140.895 35.0752 142.043 32.0127C143.223 28.9183 144.962 26.2546 147.259 24.0215C149.588 21.7565 152.491 19.986 155.968 18.71C159.477 17.402 163.56 16.748 168.218 16.748ZM168.218 29.5723C166.591 29.5723 165.171 29.8753 163.959 30.4814C162.747 31.0557 161.726 31.8851 160.896 32.9697C160.099 34.0225 159.493 35.3145 159.078 36.8457C158.663 38.3451 158.456 40.0358 158.456 41.918C158.456 43.7682 158.663 45.459 159.078 46.9902C159.493 48.5215 160.099 49.8454 160.896 50.9619C161.726 52.0465 162.747 52.8919 163.959 53.498C165.171 54.0723 166.591 54.3594 168.218 54.3594C169.845 54.3594 171.264 54.0723 172.477 53.498C173.721 52.8919 174.742 52.0465 175.539 50.9619C176.368 49.8454 176.991 48.5215 177.405 46.9902C177.82 45.459 178.027 43.7682 178.027 41.918C178.027 40.0358 177.82 38.3451 177.405 36.8457C176.991 35.3145 176.368 34.0225 175.539 32.9697C174.742 31.8851 173.721 31.0557 172.477 30.4814C171.264 29.8753 169.845 29.5723 168.218 29.5723ZM244.12 30.7686C243.163 30.3538 242.126 29.987 241.01 29.668C239.893 29.3171 238.761 29.0299 237.612 28.8066C236.464 28.5833 235.315 28.4079 234.167 28.2803C233.05 28.1527 231.982 28.0889 230.961 28.0889C229.717 28.0889 228.489 28.2643 227.276 28.6152C226.064 28.9661 224.948 29.5085 223.927 30.2422C222.938 30.944 222.061 31.8532 221.295 32.9697C220.561 34.0863 220.035 35.4102 219.716 36.9414H236.942V45.8418H219.333C219.461 47.4368 219.843 48.8564 220.481 50.1006C221.119 51.3447 221.949 52.3975 222.97 53.2588C223.991 54.0882 225.171 54.7262 226.511 55.1729C227.882 55.6195 229.366 55.8428 230.961 55.8428C231.95 55.8428 233.035 55.763 234.215 55.6035C235.427 55.444 236.639 55.2367 237.852 54.9814C239.096 54.7262 240.324 54.4232 241.536 54.0723C242.748 53.6895 243.865 53.2907 244.886 52.876V64.0732C243.227 64.807 241.042 65.5088 238.33 66.1787C235.65 66.8486 232.349 67.1836 228.425 67.1836C224.565 67.1836 221.199 66.737 218.328 65.8438C215.489 64.9186 213.049 63.7223 211.007 62.2549C208.997 60.7874 207.338 59.1445 206.03 57.3262C204.754 55.4759 203.749 53.6097 203.016 51.7275C202.282 49.8454 201.771 48.043 201.484 46.3203C201.229 44.5658 201.102 43.0664 201.102 41.8223C201.102 40.5781 201.229 39.0947 201.484 37.3721C201.771 35.6494 202.282 33.863 203.016 32.0127C203.749 30.1624 204.754 28.3281 206.03 26.5098C207.338 24.6595 208.997 23.0166 211.007 21.5811C213.049 20.1455 215.489 18.9811 218.328 18.0879C221.199 17.1947 224.565 16.748 228.425 16.748C230.371 16.748 232.093 16.8278 233.593 16.9873C235.124 17.1468 236.512 17.3701 237.756 17.6572C239 17.9124 240.132 18.2155 241.153 18.5664C242.174 18.8854 243.163 19.2204 244.12 19.5713V30.7686ZM283.033 40.3389C284.086 40.4984 285.027 40.7376 285.856 41.0566C286.686 41.3438 287.451 41.7744 288.153 42.3486C288.887 42.9229 289.605 43.6725 290.307 44.5977C291.008 45.5228 291.758 46.6872 292.556 48.0908L302.939 66.3223H283.751L277.339 53.6895C276.637 52.2539 275.951 51.0895 275.281 50.1963C274.643 49.2712 273.973 48.5534 273.271 48.043C272.57 47.5007 271.836 47.1338 271.07 46.9424C270.305 46.7191 269.459 46.6074 268.534 46.6074V66.3223H251.308V17.6094H268.534V35.458C269.396 35.458 270.193 35.3623 270.927 35.1709C271.66 34.9795 272.346 34.6286 272.984 34.1182C273.654 33.6077 274.292 32.9378 274.898 32.1084C275.505 31.2471 276.127 30.1784 276.765 28.9023L278.631 25.1699C279.237 23.9258 279.859 22.8411 280.497 21.916C281.167 20.959 282.044 20.1615 283.129 19.5234C284.214 18.8854 285.617 18.4069 287.34 18.0879C289.094 17.7689 291.359 17.6094 294.135 17.6094H299.398V30.4336H297.341C296.639 30.4336 296.033 30.4814 295.522 30.5771C295.044 30.641 294.613 30.8005 294.23 31.0557C293.848 31.279 293.481 31.6139 293.13 32.0605C292.811 32.4753 292.46 33.0495 292.077 33.7832L291.072 35.5537C290.753 36.096 290.323 36.6543 289.78 37.2285C289.238 37.7708 288.616 38.2653 287.914 38.7119C287.212 39.1585 286.447 39.5413 285.617 39.8604C284.788 40.1475 283.926 40.307 283.033 40.3389ZM335.488 66.3223H318.262V30.96H303.428V17.6094H350.274V30.96H335.488V66.3223ZM371.53 17.6094V41.7266L392.394 17.6094H406.797V66.3223H390.049V41.4395L368.994 66.3223H354.782V17.6094H371.53Z" fill="#29292B"/>
<path d="M465.865 66.3223H445.863V0H465.865V66.3223ZM528.13 39.4775H500.615V66.3223H480.613V0H528.13V13.3027H500.615V26.127H528.13V39.4775ZM647.003 0L618.292 67.1836H606.712L589.485 28.0889L571.828 67.1836H560.152L532.016 0H552.735L566.517 36.75L582.308 0H596.615L612.119 36.75L626.522 0H647.003Z" fill="#7867F4"/>
</svg>
